HIERARCHY
ROOT Hips
{
	OFFSET 0.000000 0.000000 0.000000
	CHANNELS 6 Xposition Yposition Zposition Zrotation Yrotation Xrotation 
	JOINT LeftUpLeg_virtual
	{
		OFFSET 0.000000 0.000000 0.000000
		CHANNELS 3 Zrotation Yrotation Xrotation
		JOINT LeftUpLeg
		{
			OFFSET 8.479694 -4.795517 -0.379053
			CHANNELS 3 Zrotation Yrotation Xrotation
			JOINT LeftLeg
			{
				OFFSET 0.485052 -32.551468 0.112863
				CHANNELS 3 Zrotation Yrotation Xrotation
				JOINT LeftFoot
				{
					OFFSET 0.438033 -32.635670 -3.012641
					CHANNELS 3 Zrotation Yrotation Xrotation
					JOINT LeftToeBase
					{
						OFFSET 0.970169 -13.225353 11.864223
						CHANNELS 3 Zrotation Yrotation Xrotation
						End Site
						{
							OFFSET 0.000000 0.000000 0.000000
						}
					}
				}
			}
		}
	}
	JOINT RightUpLeg_virtual
	{
		OFFSET 0.000000 0.000000 0.000000
		CHANNELS 3 Zrotation Yrotation Xrotation
		JOINT RightUpLeg
		{
			OFFSET -8.479694 -4.795517 -0.379053
			CHANNELS 3 Zrotation Yrotation Xrotation
			JOINT RightLeg
			{
				OFFSET -0.484100 -32.551483 0.112903
				CHANNELS 3 Zrotation Yrotation Xrotation
				JOINT RightFoot
				{
					OFFSET -0.438985 -32.635651 -3.012681
					CHANNELS 3 Zrotation Yrotation Xrotation
					JOINT RightToeBase
					{
						OFFSET -0.970169 -13.225354 11.864223
						CHANNELS 3 Zrotation Yrotation Xrotation
						End Site
						{
							OFFSET 0.000000 0.000000 0.000000
						}
					}
				}
			}
		}
	}
	JOINT Spine_virtual
	{
		OFFSET 0.000000 0.000000 0.000000
		CHANNELS 3 Zrotation Yrotation Xrotation
		JOINT Spine
		{
			OFFSET 0.000000 7.722015 1.166203
			CHANNELS 3 Zrotation Yrotation Xrotation
			JOINT Spine1
			{
				OFFSET 0.000000 12.024086 0.248766
				CHANNELS 3 Zrotation Yrotation Xrotation
				JOINT Spine2
				{
					OFFSET -0.000000 11.503036 -0.491240
					CHANNELS 3 Zrotation Yrotation Xrotation
					JOINT Neck_virtual
					{
						OFFSET 0.000000 0.000000 0.000000
						CHANNELS 3 Zrotation Yrotation Xrotation
						JOINT Neck
						{
							OFFSET 0.000000 18.430687 -3.123054
							CHANNELS 3 Zrotation Yrotation Xrotation
							JOINT Head
							{
								OFFSET -0.000000 9.051071 1.034021
								CHANNELS 3 Zrotation Yrotation Xrotation
								End Site
								{
									OFFSET 0.000000 0.000000 0.000000
								}
							}
						}
					}
					JOINT LeftShoulder_virtual
					{
						OFFSET 0.000000 0.000000 0.000000
						CHANNELS 3 Zrotation Yrotation Xrotation
						JOINT LeftShoulder
						{
							OFFSET 6.197824 13.665230 -4.064723
							CHANNELS 3 Zrotation Yrotation Xrotation
							JOINT LeftArm
							{
								OFFSET 7.778132 -0.187073 -1.709282
								CHANNELS 3 Zrotation Yrotation Xrotation
								JOINT LeftForeArm
								{
									OFFSET 21.954697 0.000000 -2.041093
									CHANNELS 3 Zrotation Yrotation Xrotation
									JOINT LeftHand
									{
										OFFSET 22.992908 0.000000 -0.870901
										CHANNELS 3 Zrotation Yrotation Xrotation
										End Site
										{
											OFFSET 0.000000 0.000000 0.000000
										}
									}
								}
							}
						}
					}
					JOINT RightShoulder_virtual
					{
						OFFSET 0.000000 0.000000 0.000000
						CHANNELS 3 Zrotation Yrotation Xrotation
						JOINT RightShoulder
						{
							OFFSET -6.197824 13.665230 -4.064723
							CHANNELS 3 Zrotation Yrotation Xrotation
							JOINT RightArm
							{
								OFFSET -7.778132 -0.187073 -1.709282
								CHANNELS 3 Zrotation Yrotation Xrotation
								JOINT RightForeArm
								{
									OFFSET -21.954697 0.000000 -2.041093
									CHANNELS 3 Zrotation Yrotation Xrotation
									JOINT RightHand
									{
										OFFSET -22.992908 0.000000 -0.870901
										CHANNELS 3 Zrotation Yrotation Xrotation
										End Site
										{
											OFFSET 0.000000 0.000000 0.000000
										}
									}
								}
							}
						}
					}
				}
			}
		}
	}
}
MOTION
Frames: 7
Frame Time: 0.033333
10.408656 82.167938 3.864047 179.823663 3.640733 -179.775210 -4.497510 -0.905851 11.353070 2.305039 -0.183464 -22.979751 4.237437 5.637675 25.675065 -5.947076 -6.532631 -7.177225 0.000000 0.000000 0.000000 0.045628 -1.114468 11.931476 -0.773138 -5.368856 -14.432465 -2.443636 3.816138 23.622214 8.614893 9.938493 -8.014113 0.000000 0.000000 0.000000 2.396844 1.852135 -0.112605 -6.330167 0.986692 -0.007755 0.943897 -3.360470 3.430334 0.006648 -0.047027 0.087919 0.695723 -2.206329 3.892913 0.659404 0.928688 -17.859965 0.000000 0.000000 0.000000 2.042440 -1.214398 1.405557 12.199048 0.253692 -4.750592 -22.587173 12.473673 -38.608040 -6.370202 -24.003016 -7.522869 0.000000 0.000000 0.000000 -1.804105 -0.124535 0.917790 8.188145 -10.193326 -5.201171 13.563294 -12.050418 -42.587121 -1.144080 26.288951 -4.402951 0.000000 0.000000 0.000000 
10.420509 82.160965 3.860104 179.841271 3.585775 -179.672497 -4.486190 -0.891745 11.345610 2.236481 0.064952 -22.970186 4.187597 5.846099 25.890220 -5.976636 -6.586249 -7.192859 0.000000 0.000000 0.000000 0.063316 -0.965669 12.054546 -0.984831 -4.584325 -14.272128 -2.531514 4.502068 23.738225 9.031364 10.403892 -7.592589 0.000000 0.000000 0.000000 2.415234 1.906058 -0.175630 -6.341583 1.044662 -0.037655 0.936814 -3.297296 3.438586 -0.008932 0.014614 0.091241 0.681050 -2.213371 3.891280 0.657012 0.924611 -17.927083 0.000000 0.000000 0.000000 2.014436 -1.339121 1.595681 12.228130 0.115523 -4.882122 -22.524707 12.361452 -38.573889 -6.399703 -23.882347 -7.512004 0.000000 0.000000 0.000000 -1.860796 -0.273604 0.823229 8.271940 -10.307680 -5.010881 13.657808 -12.089437 -42.449339 -1.276845 26.282734 -4.564411 0.000000 0.000000 0.000000 
10.435246 82.164024 3.853167 179.924408 3.433214 -179.677402 -4.439071 -0.959771 11.344658 2.282262 0.059836 -22.966608 4.209335 5.780944 25.941371 -5.972816 -6.592983 -7.191564 0.000000 0.000000 0.000000 0.117593 -1.041312 12.066380 -0.941182 -4.612299 -14.235695 -2.524468 4.445991 23.706448 8.999072 10.355573 -7.599916 0.000000 0.000000 0.000000 2.474585 1.825804 -0.123522 -6.282664 0.963132 -0.045183 0.970561 -3.368640 3.426662 -0.000870 -0.054029 0.099973 0.666649 -2.231033 3.971363 0.647365 0.907721 -17.847308 0.000000 0.000000 0.000000 2.025028 -1.305007 1.526686 12.196781 0.190637 -4.932171 -22.499625 12.372544 -38.494533 -6.438039 -23.881345 -7.496419 0.000000 0.000000 0.000000 -1.846874 -0.178659 0.920105 8.270328 -10.243128 -5.074479 13.706350 -12.185719 -42.577535 -1.216812 26.186095 -4.528479 0.000000 0.000000 0.000000 
10.453744 82.169540 3.845325 179.770074 3.416884 -179.676609 -4.531247 -0.983299 11.355410 2.264135 -0.029248 -22.964793 4.163653 5.795160 25.896423 -5.920084 -6.553457 -7.148571 0.000000 0.000000 0.000000 0.004130 -1.014075 12.056953 -0.965193 -4.620650 -14.212697 -2.520321 4.467004 23.693197 8.962504 10.334564 -7.617507 0.000000 0.000000 0.000000 2.369926 1.838651 -0.119076 -6.347256 0.958234 -0.062529 0.932847 -3.394874 3.433291 -0.018195 -0.100340 0.110393 0.723921 -2.170458 3.952929 0.684834 0.921647 -17.783123 0.000000 0.000000 0.000000 2.075924 -1.238367 1.459695 12.181565 0.240522 -4.901286 -22.507941 12.240333 -38.444229 -6.427642 -23.830996 -7.471432 0.000000 0.000000 0.000000 -1.777958 -0.122108 0.914977 8.275251 -10.230233 -5.206535 13.755899 -12.258673 -42.584887 -1.194276 26.106851 -4.446538 0.000000 0.000000 0.000000 
10.471454 82.167015 3.836209 179.826750 3.454413 -179.669110 -4.505210 -0.953191 11.358083 2.310284 -0.004462 -22.975363 4.158781 5.827219 25.913683 -5.928011 -6.587282 -7.183953 0.000000 0.000000 0.000000 0.030266 -1.004381 12.038830 -0.933045 -4.561652 -14.196929 -2.496854 4.484109 23.680406 8.953855 10.315671 -7.634707 0.000000 0.000000 0.000000 2.405490 1.838081 -0.107506 -6.322068 1.012317 -0.049495 0.941995 -3.307194 3.467368 -0.019183 -0.015646 0.098391 0.701968 -2.176503 3.908676 0.693134 0.976000 -17.902283 0.000000 0.000000 0.000000 2.057243 -1.292051 1.524904 12.129022 0.202000 -4.752587 -22.517742 12.057949 -38.397804 -6.365428 -23.779741 -7.554218 0.000000 0.000000 0.000000 -1.808815 -0.192437 0.861180 8.308038 -10.255221 -5.273078 13.833692 -12.360681 -42.635441 -1.179508 26.151184 -4.440866 0.000000 0.000000 0.000000 
10.487850 82.163208 3.830393 179.859672 3.428794 -179.679710 -4.469856 -0.924925 11.362088 2.331098 -0.055334 -22.988842 4.181139 5.830612 25.947945 -5.934132 -6.614464 -7.182311 0.000000 0.000000 0.000000 0.089265 -1.040531 12.027295 -0.943670 -4.591707 -14.178589 -2.529190 4.488423 23.693993 8.956395 10.311330 -7.658743 0.000000 0.000000 0.000000 2.391974 1.786231 -0.094613 -6.301247 0.990140 -0.059765 0.951696 -3.327264 3.465991 -0.023912 -0.054360 0.118353 0.708769 -2.160204 3.967594 0.694074 0.959434 -17.705891 0.000000 0.000000 0.000000 2.070126 -1.203802 1.501480 12.135142 0.359766 -4.956472 -22.563687 11.920885 -38.307819 -6.420775 -23.693300 -7.457399 0.000000 0.000000 0.000000 -1.804629 -0.107550 0.907279 8.380669 -10.151457 -5.175698 13.901934 -12.397138 -42.673943 -1.275936 26.153112 -4.526776 0.000000 0.000000 0.000000 
10.497930 82.155190 3.824514 179.864931 3.362482 -179.672607 -4.454232 -0.981573 11.355909 2.343039 -0.130715 -23.011416 4.193658 5.833666 25.995002 -5.913507 -6.613848 -7.200442 0.000000 0.000000 0.000000 0.109250 -1.097223 12.013860 -0.942542 -4.595197 -14.169789 -2.521726 4.479104 23.717885 8.939808 10.295872 -7.703617 0.000000 0.000000 0.000000 2.391402 1.769760 -0.082560 -6.277007 1.003680 -0.048925 0.966346 -3.287359 3.493247 -0.000051 -0.024803 0.125996 0.674193 -2.175012 3.988614 0.712625 0.975352 -17.664300 0.000000 0.000000 0.000000 2.037159 -1.292680 1.509181 12.058014 0.364247 -4.820125 -22.623979 11.729540 -38.305029 -6.374500 -23.608323 -7.487050 0.000000 0.000000 0.000000 -1.859575 -0.136784 0.839507 8.356141 -10.167945 -5.290453 14.116153 -12.573366 -42.678027 -1.206511 26.268974 -4.481484 0.000000 0.000000 0.000000 
